<?xml version="1.0" encoding="utf-8"?>
<!-- Generator: Adobe Illustrator 16.0.0, SVG Export Plug-In . SVG Version: 6.00 Build 0)  -->
<!DOCTYPE svg PUBLIC "-//W3C//DTD SVG 1.1//EN" "http://www.w3.org/Graphics/SVG/1.1/DTD/svg11.dtd">
<svg version="1.1" id="Layer_1" xmlns="http://www.w3.org/2000/svg" xmlns:xlink="http://www.w3.org/1999/xlink" x="0px" y="0px"
	  viewBox="0 0 16 16" enable-background="new 0 0 16 16" xml:space="preserve">
<g id="Layer_2">
	<g>
		<g>
			<path fill="#282828" d="M10.448,9.719c-0.394,0-0.755,0.135-1.046,0.357L6.413,8.281C6.428,8.19,6.438,8.096,6.438,8
				c0-0.097-0.01-0.189-0.025-0.281l2.989-1.794c0.291,0.223,0.652,0.356,1.046,0.356c0.95,0,1.719-0.771,1.719-1.719
				s-0.769-1.719-1.719-1.719c-0.948,0-1.72,0.771-1.72,1.719c0,0.096,0.012,0.189,0.024,0.281l-2.99,1.794
				c-0.29-0.223-0.651-0.354-1.045-0.354C3.77,6.281,3,7.051,3,8c0,0.95,0.77,1.719,1.719,1.719c0.394,0,0.755-0.134,1.045-0.354
				l2.99,1.794c-0.015,0.092-0.025,0.185-0.025,0.279c0,0.95,0.771,1.721,1.721,1.721s1.719-0.771,1.719-1.721
				C12.167,10.488,11.398,9.719,10.448,9.719z"/>
		</g>
	</g>
</g>
</svg>
